# xmcd
#
# Track frame offsets:
#	150
#	11921
#	25542
#	37004
#	47132
#	60226
#	71035
#	83232
#	97272
#	107343
#	120596
#
# Disc length: 1777 seconds
#
# Revision: 1
# Processed by: cddbd v1.5.2PL0 Copyright (c) Steve Scherf et al.
# Submitted via: audiograbber 1.82.01
#
DISCID=8a06ef0b
DTITLE=Tammy Wynette - Another Lonely Song
DYEAR=1974
DGENRE=Country
TTITLE0=Another Lonely Song
TTITLE1=Crying Steel Guitar
TTITLE2=What My Thoughts Do All The Time
TTITLE3=Stayin' Home Woman
TTITLE4=Satin Sheets
TTITLE5=Homecoming
TTITLE6=Help Me Make It Through The Night
TTITLE7=Keep Me In Mind
TTITLE8=Oh, How I Miss Him
TTITLE9=With Child
TTITLE10=One Final Stand
EXTD=
EXTT0=
EXTT1=
EXTT2=
EXTT3=
EXTT4=
EXTT5=
EXTT6=
EXTT7=
EXTT8=
EXTT9=
EXTT10=
PLAYORDER=
